HIERARCHY
ROOT newVegas:Hips
{
	OFFSET 0.000000 96.330055 9.825774
	CHANNELS 6 Xposition Yposition Zposition Xrotation Yrotation Zrotation
	JOINT newVegas:Pelvis
	{
		OFFSET 0.000000 0.000000 0.000000
		CHANNELS 3 Xrotation Yrotation Zrotation
		JOINT newVegas:LeftUpLeg
		{
			OFFSET 18.735231 -5.666687 -4.541196
			CHANNELS 3 Xrotation Yrotation Zrotation
			JOINT newVegas:LeftLeg
			{
				OFFSET 2.165257 -31.864662 0.493051
				CHANNELS 3 Xrotation Yrotation Zrotation
				JOINT newVegas:LeftFoot
				{
					OFFSET 2.207560 -31.861769 -4.336291
					CHANNELS 3 Xrotation Yrotation Zrotation
					JOINT newVegas:LeftToeBase
					{
						OFFSET 0.942982 -26.721954 15.023476
						CHANNELS 3 Xrotation Yrotation Zrotation
						End Site
						{
							OFFSET 0.000000 30.670130 0.000000
						}
					}
				}
				JOINT newVegas:Left_PantLeg
				{
					OFFSET 1.281483 -8.977982 -1.108870
					CHANNELS 3 Xrotation Yrotation Zrotation
					End Site
					{
						OFFSET 0.000000 20.683853 0.000000
					}
				}
			}
		}
		JOINT newVegas:RightUpLeg
		{
			OFFSET -18.735231 -5.666687 -4.541196
			CHANNELS 3 Xrotation Yrotation Zrotation
			JOINT newVegas:RightLeg
			{
				OFFSET -2.167511 -31.864510 0.493069
				CHANNELS 3 Xrotation Yrotation Zrotation
				JOINT newVegas:RightFoot
				{
					OFFSET -2.205305 -31.861921 -4.336310
					CHANNELS 3 Xrotation Yrotation Zrotation
					JOINT newVegas:RightToeBase
					{
						OFFSET -0.942982 -26.721954 15.023476
						CHANNELS 3 Xrotation Yrotation Zrotation
						End Site
						{
							OFFSET 0.000000 30.670130 0.000000
						}
					}
				}
				JOINT newVegas:Right_PantLeg
				{
					OFFSET -1.279257 -8.978161 -1.108887
					CHANNELS 3 Xrotation Yrotation Zrotation
					End Site
					{
						OFFSET 0.000000 20.683781 0.000000
					}
				}
			}
		}
	}
	JOINT newVegas:Spine
	{
		OFFSET 0.000000 10.200043 -0.299546
		CHANNELS 3 Xrotation Yrotation Zrotation
		JOINT newVegas:Spine1
		{
			OFFSET 0.000000 11.900047 -1.516603
			CHANNELS 3 Xrotation Yrotation Zrotation
			JOINT newVegas:Spine2
			{
				OFFSET 0.000000 13.600052 -2.842519
				CHANNELS 3 Xrotation Yrotation Zrotation
				JOINT newVegas:Neck
				{
					OFFSET 0.000000 9.624100 -2.890091
					CHANNELS 3 Xrotation Yrotation Zrotation
					JOINT newVegas:Head
					{
						OFFSET 0.000000 14.068771 -1.351861
						CHANNELS 3 Xrotation Yrotation Zrotation
						JOINT newVegas:Hair_Back
						{
							OFFSET 0.000000 3.231888 -17.524775
							CHANNELS 3 Xrotation Yrotation Zrotation
							End Site
							{
								OFFSET 0.000000 19.849899 0.000000
							}
						}
						JOINT newVegas:Hair_Front
						{
							OFFSET 0.000000 31.260452 4.573765
							CHANNELS 3 Xrotation Yrotation Zrotation
							JOINT newVegas:Hair_Front1
							{
								OFFSET -0.000000 2.284073 11.993284
								CHANNELS 3 Xrotation Yrotation Zrotation
								JOINT newVegas:Hair_Front2
								{
									OFFSET -0.000000 2.284073 11.993282
									CHANNELS 3 Xrotation Yrotation Zrotation
									End Site
									{
										OFFSET 0.000000 12.208847 0.000000
									}
								}
							}
						}
						JOINT newVegas:Jowel
						{
							OFFSET 0.000000 -7.458237 6.864121
							CHANNELS 3 Xrotation Yrotation Zrotation
							End Site
							{
								OFFSET 0.000000 19.849899 0.000000
							}
						}
					}
				}
				JOINT newVegas:LeftShoulder
				{
					OFFSET 15.263037 10.923431 -0.547705
					CHANNELS 3 Xrotation Yrotation Zrotation
					JOINT newVegas:LeftArm
					{
						OFFSET 25.438639 -2.830658 -13.032501
						CHANNELS 3 Xrotation Yrotation Zrotation
						JOINT newVegas:LeftForeArm
						{
							OFFSET 29.593842 0.000000 -4.673203
							CHANNELS 3 Xrotation Yrotation Zrotation
							JOINT newVegas:LeftHand
							{
								OFFSET 27.832886 0.000000 0.954267
								CHANNELS 3 Xrotation Yrotation Zrotation
								JOINT newVegas:LeftHandThumb1
								{
									OFFSET 4.767456 -2.676666 6.397403
									CHANNELS 3 Xrotation Yrotation Zrotation
									JOINT newVegas:LeftHandThumb2
									{
										OFFSET 6.625809 -0.223526 2.471421
										CHANNELS 3 Xrotation Yrotation Zrotation
										JOINT newVegas:LeftHandThumb3
										{
											OFFSET 6.481201 0.059357 1.536795
											CHANNELS 3 Xrotation Yrotation Zrotation
											End Site
											{
												OFFSET 0.000000 6.661179 0.000000
											}
										}
									}
								}
								JOINT newVegas:LeftHandIndex1
								{
									OFFSET 18.761932 0.178406 4.531118
									CHANNELS 3 Xrotation Yrotation Zrotation
									JOINT newVegas:LeftHandIndex2
									{
										OFFSET 3.171219 -0.350479 0.097670
										CHANNELS 3 Xrotation Yrotation Zrotation
										JOINT newVegas:LeftHandIndex3
										{
											OFFSET 3.807625 -0.034592 0.457391
											CHANNELS 3 Xrotation Yrotation Zrotation
											End Site
											{
												OFFSET 0.000000 3.835159 0.000000
											}
										}
									}
								}
								JOINT newVegas:LeftHandMiddle1
								{
									OFFSET 18.461426 0.243439 -0.695649
									CHANNELS 3 Xrotation Yrotation Zrotation
									JOINT newVegas:LeftHandMiddle2
									{
										OFFSET 3.308960 -0.304459 -0.112251
										CHANNELS 3 Xrotation Yrotation Zrotation
										JOINT newVegas:LeftHandMiddle3
										{
											OFFSET 4.584320 0.057678 -0.330443
											CHANNELS 3 Xrotation Yrotation Zrotation
											End Site
											{
												OFFSET 0.000000 4.596573 0.000000
											}
										}
									}
								}
								JOINT newVegas:LeftHandRing1
								{
									OFFSET 17.563904 -0.015564 -4.860666
									CHANNELS 3 Xrotation Yrotation Zrotation
									JOINT newVegas:LeftHandRing2
									{
										OFFSET 2.582436 -0.710159 -0.544994
										CHANNELS 3 Xrotation Yrotation Zrotation
										JOINT newVegas:LeftHandRing3
										{
											OFFSET 3.050346 0.119141 -0.884829
											CHANNELS 3 Xrotation Yrotation Zrotation
											End Site
											{
												OFFSET 0.000000 3.178314 0.000000
											}
										}
									}
								}
								JOINT newVegas:LeftHandPinky1
								{
									OFFSET 15.713013 -1.058273 -8.049927
									CHANNELS 3 Xrotation Yrotation Zrotation
									JOINT newVegas:LeftHandPinky2
									{
										OFFSET 2.262558 -0.308899 -1.109793
										CHANNELS 3 Xrotation Yrotation Zrotation
										JOINT newVegas:LeftHandPinky3
										{
											OFFSET 2.240669 -0.150864 -1.296448
											CHANNELS 3 Xrotation Yrotation Zrotation
											End Site
											{
												OFFSET 0.000000 2.593094 0.000000
											}
										}
									}
								}
							}
							JOINT newVegas:Left_Sleeve
							{
								OFFSET 0.247482 -0.649780 0.586459
								CHANNELS 3 Xrotation Yrotation Zrotation
								End Site
								{
									OFFSET 0.000000 15.991226 0.000000
								}
							}
							JOINT newVegas:Left_CapeC
							{
								OFFSET 15.944374 -8.608810 -6.393338
								CHANNELS 3 Xrotation Yrotation Zrotation
								JOINT newVegas:Left_CapeC1
								{
									OFFSET 0.000000 -8.688515 0.000000
									CHANNELS 3 Xrotation Yrotation Zrotation
									End Site
									{
										OFFSET 0.000000 8.688515 0.000000
									}
								}
							}
						}
						JOINT newVegas:Left_CapeB
						{
							OFFSET 24.694458 -8.608810 -11.066542
							CHANNELS 3 Xrotation Yrotation Zrotation
							JOINT newVegas:Left_CapeB1
							{
								OFFSET 0.000008 -8.688515 0.000000
								CHANNELS 3 Xrotation Yrotation Zrotation
								End Site
								{
									OFFSET 0.000000 8.688515 0.000000
								}
							}
						}
						JOINT newVegas:Left_CapeA
						{
							OFFSET 3.431450 -8.608810 -11.066542
							CHANNELS 3 Xrotation Yrotation Zrotation
							JOINT newVegas:Left_CapeA1
							{
								OFFSET 0.000000 -8.688515 0.000000
								CHANNELS 3 Xrotation Yrotation Zrotation
								End Site
								{
									OFFSET 0.000000 8.688515 0.000000
								}
							}
						}
					}
				}
				JOINT newVegas:RightShoulder
				{
					OFFSET -15.263037 10.923431 -0.547705
					CHANNELS 3 Xrotation Yrotation Zrotation
					JOINT newVegas:RightArm
					{
						OFFSET -25.438639 -2.830658 -13.032501
						CHANNELS 3 Xrotation Yrotation Zrotation
						JOINT newVegas:RightForeArm
						{
							OFFSET -29.593842 0.000000 -4.673203
							CHANNELS 3 Xrotation Yrotation Zrotation
							JOINT newVegas:RightHand
							{
								OFFSET -27.832886 0.000000 0.954267
								CHANNELS 3 Xrotation Yrotation Zrotation
								JOINT newVegas:RightHandThumb1
								{
									OFFSET -4.767456 -2.676666 6.397403
									CHANNELS 3 Xrotation Yrotation Zrotation
									JOINT newVegas:RightHandThumb2
									{
										OFFSET -6.625809 -0.223526 2.471421
										CHANNELS 3 Xrotation Yrotation Zrotation
										JOINT newVegas:RightHandThumb3
										{
											OFFSET -6.481201 0.059357 1.536795
											CHANNELS 3 Xrotation Yrotation Zrotation
											End Site
											{
												OFFSET 0.000000 6.661179 0.000000
											}
										}
									}
								}
								JOINT newVegas:RightHandIndex1
								{
									OFFSET -18.761932 0.178406 4.531118
									CHANNELS 3 Xrotation Yrotation Zrotation
									JOINT newVegas:RightHandIndex2
									{
										OFFSET -3.171219 -0.350479 0.097670
										CHANNELS 3 Xrotation Yrotation Zrotation
										JOINT newVegas:RightHandIndex3
										{
											OFFSET -3.807625 -0.034592 0.457391
											CHANNELS 3 Xrotation Yrotation Zrotation
											End Site
											{
												OFFSET 0.000000 3.835159 0.000000
											}
										}
									}
								}
								JOINT newVegas:RightHandMiddle1
								{
									OFFSET -18.461426 0.243439 -0.695648
									CHANNELS 3 Xrotation Yrotation Zrotation
									JOINT newVegas:RightHandMiddle2
									{
										OFFSET -3.308960 -0.304459 -0.112251
										CHANNELS 3 Xrotation Yrotation Zrotation
										JOINT newVegas:RightHandMiddle3
										{
											OFFSET -4.584320 0.057678 -0.330443
											CHANNELS 3 Xrotation Yrotation Zrotation
											End Site
											{
												OFFSET 0.000000 4.596573 0.000000
											}
										}
									}
								}
								JOINT newVegas:RightHandRing1
								{
									OFFSET -17.563904 -0.015564 -4.860666
									CHANNELS 3 Xrotation Yrotation Zrotation
									JOINT newVegas:RightHandRing2
									{
										OFFSET -2.582436 -0.710159 -0.544992
										CHANNELS 3 Xrotation Yrotation Zrotation
										JOINT newVegas:RightHandRing3
										{
											OFFSET -3.050346 0.119141 -0.884830
											CHANNELS 3 Xrotation Yrotation Zrotation
											End Site
											{
												OFFSET 0.000000 3.178329 0.000000
											}
										}
									}
								}
								JOINT newVegas:RightHandPinky1
								{
									OFFSET -15.713013 -1.058273 -8.049929
									CHANNELS 3 Xrotation Yrotation Zrotation
									JOINT newVegas:RightHandPinky2
									{
										OFFSET -2.262558 -0.308899 -1.109791
										CHANNELS 3 Xrotation Yrotation Zrotation
										JOINT newVegas:RightHandPinky3
										{
											OFFSET -2.240669 -0.150864 -1.296448
											CHANNELS 3 Xrotation Yrotation Zrotation
											End Site
											{
												OFFSET 0.000000 2.593094 0.000000
											}
										}
									}
								}
							}
							JOINT newVegas:Right_CapeC
							{
								OFFSET -15.944374 -8.608810 -6.393338
								CHANNELS 3 Xrotation Yrotation Zrotation
								JOINT newVegas:Right_CapeC1
								{
									OFFSET 0.000000 -8.688515 0.000000
									CHANNELS 3 Xrotation Yrotation Zrotation
									End Site
									{
										OFFSET 0.000000 8.688515 0.000000
									}
								}
							}
							JOINT newVegas:Right_Sleeve
							{
								OFFSET -0.247482 -0.649963 0.586505
								CHANNELS 3 Xrotation Yrotation Zrotation
								End Site
								{
									OFFSET 0.000000 15.991287 0.000000
								}
							}
						}
						JOINT newVegas:Right_CapeA
						{
							OFFSET -3.431450 -8.608810 -11.066542
							CHANNELS 3 Xrotation Yrotation Zrotation
							JOINT newVegas:Right_CapeA1
							{
								OFFSET 0.000000 -8.688515 0.000000
								CHANNELS 3 Xrotation Yrotation Zrotation
								End Site
								{
									OFFSET 0.000000 8.688515 0.000000
								}
							}
						}
						JOINT newVegas:Right_CapeB
						{
							OFFSET -24.694321 -8.608810 -11.066542
							CHANNELS 3 Xrotation Yrotation Zrotation
							JOINT newVegas:Right_CapeB1
							{
								OFFSET -0.000015 -8.688515 0.000002
								CHANNELS 3 Xrotation Yrotation Zrotation
								End Site
								{
									OFFSET 0.000000 8.688515 0.000000
								}
							}
						}
					}
				}
				JOINT newVegas:Left_Collar
				{
					OFFSET 18.625118 8.655487 8.828113
					CHANNELS 3 Xrotation Yrotation Zrotation
					JOINT newVegas:Left_Collar1
					{
						OFFSET 14.783401 10.540359 -1.259481
						CHANNELS 3 Xrotation Yrotation Zrotation
						End Site
						{
							OFFSET 0.000000 18.199844 0.000000
						}
					}
				}
				JOINT newVegas:Collar_Back
				{
					OFFSET 0.000000 15.630692 -20.132616
					CHANNELS 3 Xrotation Yrotation Zrotation
					End Site
					{
						OFFSET 0.000000 22.523010 0.000000
					}
				}
				JOINT newVegas:Left_Peck
				{
					OFFSET 17.239555 -5.132629 25.482586
					CHANNELS 3 Xrotation Yrotation Zrotation
					End Site
					{
						OFFSET 0.000000 22.523026 0.000000
					}
				}
				JOINT newVegas:Right_Peck
				{
					OFFSET -17.239599 -5.132195 25.482594
					CHANNELS 3 Xrotation Yrotation Zrotation
					End Site
					{
						OFFSET 0.000000 22.523018 0.000000
					}
				}
				JOINT newVegas:Right_Collar
				{
					OFFSET -18.625099 8.655807 8.828094
					CHANNELS 3 Xrotation Yrotation Zrotation
					JOINT newVegas:Right_Collar1
					{
						OFFSET -14.783405 10.539993 -1.259501
						CHANNELS 3 Xrotation Yrotation Zrotation
						End Site
						{
							OFFSET 0.000000 18.199646 0.000000
						}
					}
				}
			}
		}
		JOINT newVegas:Belly
		{
			OFFSET 0.000000 -6.540390 9.014252
			CHANNELS 3 Xrotation Yrotation Zrotation
			End Site
			{
				OFFSET 0.000000 11.566666 0.000000
			}
		}
	}
	JOINT newVegas:ElvisFacialAnim_Joint
	{
		OFFSET 1.000000 -95.330055 -8.825774
		CHANNELS 3 Xrotation Yrotation Zrotation
		End Site
		{
			OFFSET 0.000000 35.315800 0.000000
		}
	}
}
MOTION
Frames: 4
Frame Time: 0.016667
1.487276 91.248268 -3.411113 -8.579641 0.515936 -5.556257 0.000000 0.000000 -0.000000 -20.343382 10.570278 7.367442 47.789703 11.233957 3.232653 -20.658407 6.480820 -2.981811 0.000000 -0.000002 -0.000000 -0.000001 -0.000001 -0.000000 -17.440366 -6.482489 0.370870 27.385135 -10.010511 -0.262530 0.092199 -11.848672 2.811929 -0.000000 0.000000 -0.000000 0.000000 0.000001 0.000000 22.184352 0.144046 -11.275855 4.323409 0.146922 0.771311 4.317598 0.254437 0.769915 2.468810 0.926324 -2.115787 2.468800 0.926325 -2.115784 0.000002 -0.000000 -0.000001 2.468802 0.926327 -2.115786 2.468809 0.926308 -2.115782 0.000000 0.000000 -0.000000 0.000002 -0.000000 -0.000001 0.683441 -4.757083 -8.732306 -25.870752 -21.248829 -58.826445 0.000002 -1.802266 -0.000009 0.567909 -10.236492 8.577081 9.933741 7.494520 -13.557092 0.071962 3.965317 -2.873153 -0.000001 -0.000000 0.000000 0.583148 3.936699 -9.978993 3.466566 4.797991 -26.310251 0.000000 0.000000 -0.000001 -0.294880 0.921241 -14.450107 -2.242322 -0.322897 -37.938620 -0.000001 0.000001 -0.000001 -2.582655 -7.799048 -9.044916 -13.288462 6.717259 -61.169221 0.000002 -0.000000 -0.000002 -7.871410 -16.265981 -21.221529 -25.371339 8.737082 -54.301360 0.000002 -0.000001 -0.000002 -0.000001 0.000002 0.000000 -0.000001 0.000002 0.000000 -0.000001 0.000002 0.000000 0.000002 -0.000001 0.000000 0.000002 -0.000001 0.000000 0.000002 -0.000001 0.000000 0.000002 -0.000001 0.000000 -0.194356 2.291444 -1.723704 -23.971099 11.953768 82.033646 -0.000004 1.088947 0.000010 25.696393 14.905279 -10.745992 9.317956 -10.077024 13.148570 -0.347457 -1.424584 1.363928 -0.000003 0.000000 0.000000 3.309628 -10.600866 16.215159 2.737821 -4.972849 20.151280 -0.000003 -0.000001 -0.000001 2.735498 -7.417447 22.593381 -1.883694 0.865761 29.544728 -0.000000 0.000000 0.000001 -0.381087 1.164286 19.392568 -12.065886 -3.755677 50.488437 -0.000003 -0.000000 -0.000001 -9.744907 11.678696 33.601908 -21.060586 -6.937605 41.412728 0.000002 0.000001 0.000004 0.000000 0.000000 -0.000001 0.000000 0.000000 -0.000001 0.000000 0.000000 -0.000001 -0.000001 -0.000000 0.000000 -0.000001 -0.000000 0.000000 -0.000001 -0.000000 0.000000 -0.000001 -0.000000 0.000000 0.000001 -0.000000 0.000000 0.000000 -0.000001 0.000000 0.000001 -0.000000 0.000000 0.000001 -0.000000 0.000000 0.000001 -0.000000 0.000000 0.000001 -0.000000 0.000000 0.000000 -0.000001 0.000000 0.000000 -0.000000 -0.000001 0.000001 0.000000 -0.000000 
1.577019 91.260826 -3.401376 -8.964846 0.825941 -5.564337 0.000000 -0.000000 -0.000000 -20.051864 10.579270 7.361411 47.891483 11.295548 3.265537 -20.713732 6.174615 -2.954088 0.000000 0.000002 -0.000000 0.000000 -0.000000 0.000001 -16.922330 -6.675962 0.211736 27.433981 -10.006405 -0.173826 -0.031638 -11.873000 2.874258 -0.000000 -0.000000 0.000000 0.000000 0.000001 0.000000 22.300368 0.384325 -11.363152 4.244833 0.179286 0.853542 4.237878 0.289960 0.852519 2.494709 0.889204 -2.124214 2.494725 0.889201 -2.124223 -0.000000 0.000000 0.000001 2.494788 0.889217 -2.124205 2.494696 0.889234 -2.124221 -0.000003 0.000001 0.000002 -0.000000 0.000000 0.000001 0.673840 -4.345952 -8.751170 -27.636108 -22.445962 -60.879928 0.000008 2.584662 0.000001 0.451202 -8.810917 11.401077 9.959439 7.575999 -13.587876 0.071964 3.965315 -2.873154 0.000000 0.000000 0.000001 0.669200 4.262021 -9.371160 3.467912 4.797620 -26.321838 -0.000001 0.000000 0.000001 -0.220278 1.023122 -13.773979 -2.256167 -0.296006 -38.318041 0.000000 -0.000002 -0.000001 -2.484086 -7.982218 -8.283794 -13.355856 6.950109 -61.969938 0.000002 0.000000 -0.000001 -7.749963 -16.716707 -20.409442 -25.663430 9.275077 -55.311569 0.000002 0.000000 -0.000001 -0.000001 0.000001 -0.000000 -0.000001 0.000001 -0.000000 -0.000001 0.000001 -0.000000 0.000003 0.000000 0.000000 0.000003 0.000000 0.000000 0.000003 0.000000 0.000000 0.000003 0.000000 0.000000 -0.200339 2.255768 -1.862669 -24.528859 12.548591 82.962012 -0.000000 0.351328 0.000008 27.680907 15.779899 -8.606721 9.312685 -10.050698 13.151956 -0.347919 -1.426659 1.363856 0.000000 0.000001 0.000001 3.408660 -10.744443 16.505839 2.737828 -4.972837 20.151433 -0.000002 -0.000001 0.000001 2.791053 -7.476212 22.870417 -1.883832 0.865556 29.547835 0.000001 0.000000 -0.000002 -0.421942 1.189571 19.657110 -12.066161 -3.756252 50.490486 0.000000 -0.000002 -0.000001 -9.897520 11.728118 33.877940 -21.060601 -6.937598 41.412745 0.000001 -0.000000 -0.000000 -0.000001 0.000000 -0.000000 -0.000001 0.000000 -0.000000 -0.000001 0.000000 -0.000000 -0.000001 -0.000000 -0.000000 -0.000001 -0.000000 -0.000000 -0.000001 -0.000000 -0.000000 -0.000001 -0.000000 -0.000000 0.000002 -0.000000 -0.000000 0.000002 -0.000000 -0.000000 0.000002 -0.000000 -0.000000 0.000002 -0.000000 -0.000000 0.000002 -0.000000 -0.000000 0.000002 -0.000000 -0.000000 0.000002 -0.000000 -0.000000 -0.000000 0.000000 0.000000 0.000000 -0.000000 -0.000000 
1.661588 91.302757 -3.359562 -9.280327 1.191262 -5.544250 -0.000001 0.000000 -0.000000 -19.754388 10.606741 7.347148 47.850714 11.346413 3.286529 -20.703739 5.794429 -2.915940 -0.000000 0.000000 0.000000 0.000002 -0.000001 0.000000 -16.359749 -6.869495 0.042706 27.360556 -10.007888 -0.082436 -0.143872 -11.946282 2.940261 -0.000000 -0.000000 -0.000000 0.000000 -0.000002 -0.000000 22.330443 0.552093 -11.431027 4.133711 0.201983 0.930891 4.125798 0.314541 0.929982 2.511211 0.847502 -2.130179 2.511220 0.847503 -2.130184 0.000003 -0.000000 -0.000001 2.511290 0.847498 -2.130186 2.511190 0.847519 -2.130180 0.000000 0.000000 0.000002 0.000003 -0.000000 -0.000001 0.662095 -3.939410 -8.761917 -28.899811 -23.434828 -62.712427 0.000001 6.099096 0.000004 -0.043123 -6.865822 13.742452 9.979095 7.622841 -13.626783 0.071966 3.965315 -2.873153 -0.000002 0.000000 -0.000000 0.757650 4.627679 -8.990785 3.469358 4.797223 -26.334124 0.000000 0.000000 0.000001 -0.137603 1.202178 -13.274406 -2.271008 -0.266692 -38.730069 0.000001 0.000001 0.000000 -2.364112 -8.044645 -7.633979 -13.425354 7.204016 -62.839653 -0.000000 -0.000001 -0.000001 -7.573345 -17.015106 -19.644493 -25.970240 9.865120 -56.407551 0.000000 0.000001 -0.000001 -0.000000 -0.000001 0.000001 -0.000000 -0.000001 0.000001 -0.000000 -0.000001 0.000001 -0.000001 0.000000 -0.000000 -0.000001 0.000000 -0.000000 -0.000001 0.000000 -0.000000 -0.000001 0.000000 -0.000000 -0.201597 2.145567 -1.996628 -24.882488 13.013215 83.801893 -0.000001 -0.082485 0.000031 29.501872 16.667898 -6.358092 9.300075 -9.981399 13.160632 -0.348439 -1.426514 1.363918 -0.000003 0.000001 0.000000 3.509309 -10.848991 16.893819 2.737865 -4.972832 20.151636 -0.000002 -0.000001 0.000001 2.848169 -7.523864 23.202381 -1.883969 0.865368 29.550721 -0.000003 -0.000000 -0.000001 -0.448912 1.194989 19.923660 -12.066397 -3.756713 50.492279 -0.000001 0.000001 0.000003 -10.006527 11.745334 34.107164 -21.060600 -6.937615 41.412752 -0.000001 0.000003 -0.000000 0.000000 -0.000000 0.000001 0.000000 -0.000000 0.000001 0.000000 -0.000000 0.000001 -0.000001 -0.000001 0.000000 -0.000001 -0.000001 0.000000 -0.000001 -0.000001 0.000000 -0.000001 -0.000001 0.000000 0.000001 -0.000000 -0.000001 -0.000000 -0.000000 -0.000001 0.000001 -0.000000 -0.000001 0.000001 -0.000000 -0.000001 0.000001 -0.000000 -0.000001 0.000001 -0.000000 -0.000001 -0.000000 -0.000000 -0.000001 0.000000 -0.000000 -0.000001 -0.000000 0.000000 -0.000000 
1.743333 91.376282 -3.283806 -9.538171 1.583836 -5.502252 -0.000001 -0.000000 0.000000 -19.425036 10.661918 7.324804 47.662867 11.386748 3.298885 -20.637966 5.362919 -2.870097 -0.000000 0.000000 -0.000000 0.000002 -0.000001 0.000001 -15.737533 -7.045385 -0.115983 27.140199 -10.019614 -0.005224 -0.223956 -12.062211 3.016394 -0.000000 0.000000 -0.000000 0.000000 0.000001 -0.000000 22.275755 0.644490 -11.476054 3.999444 0.214994 0.991230 3.990888 0.327722 0.990229 2.513049 0.806723 -2.134585 2.513067 0.806722 -2.134598 -0.000000 0.000001 0.000001 2.513056 0.806722 -2.134599 2.513087 0.806720 -2.134597 -0.000001 -0.000000 0.000001 -0.000000 0.000001 0.000001 0.649428 -3.574096 -8.776974 -29.461826 -24.143634 -64.170495 0.000000 8.432254 -0.000001 -0.755633 -4.643352 15.095210 9.993161 7.632759 -13.672629 0.071963 3.965316 -2.873153 0.000001 0.000000 -0.000000 0.845017 5.001491 -8.901525 3.470569 4.796898 -26.344434 0.000002 -0.000000 -0.000000 -0.055984 1.440032 -13.014476 -2.285757 -0.237026 -39.145679 -0.000000 -0.000001 -0.000002 -2.241220 -7.986992 -7.158973 -13.491697 7.461707 -63.719040 0.000001 0.000001 0.000001 -7.366751 -17.144231 -18.991121 -26.269425 10.467678 -57.514837 0.000000 -0.000001 0.000002 0.000000 -0.000001 0.000000 0.000000 -0.000001 0.000000 0.000000 -0.000001 0.000000 0.000001 0.000001 0.000000 0.000001 0.000001 0.000001 0.000001 0.000001 0.000000 0.000001 0.000001 0.000000 -0.198743 1.964395 -2.107639 -25.018051 13.414335 84.534424 -0.000005 -0.207702 -0.000015 30.891313 17.394596 -4.264104 9.280492 -9.883273 13.169282 -0.348926 -1.424862 1.364032 -0.000000 0.000001 -0.000000 3.607601 -10.912829 17.346548 2.737885 -4.972849 20.151737 -0.000004 -0.000000 -0.000000 2.905186 -7.560647 23.561574 -1.884079 0.865209 29.553156 0.000002 0.000000 0.000000 -0.458443 1.179512 20.170088 -12.066598 -3.757109 50.493710 0.000000 0.000000 -0.000000 -10.063453 11.731201 34.270993 -21.060595 -6.937588 41.412745 -0.000001 -0.000000 -0.000002 0.000000 0.000000 -0.000001 0.000000 0.000000 -0.000001 0.000000 0.000000 0.000000 -0.000001 0.000000 -0.000001 -0.000001 0.000000 -0.000001 -0.000001 0.000000 -0.000001 -0.000001 0.000000 -0.000001 0.000000 -0.000000 0.000000 -0.000001 -0.000001 0.000000 0.000000 -0.000000 0.000000 0.000000 -0.000000 0.000000 0.000000 -0.000000 0.000000 0.000000 -0.000000 0.000000 -0.000001 -0.000001 0.000000 0.000001 0.000000 0.000001 -0.000000 -0.000000 0.000000 
